<svg width="10" height="10" viewBox="0 0 10 10" fill="none" xmlns="http://www.w3.org/2000/svg">
<path d="M9.7782 0.229703C9.70806 0.159056 9.62463 0.102987 9.53273 0.0647255C9.44083 0.0264641 9.34227 0.00676608 9.24273 0.00676608C9.14318 0.00676608 9.04462 0.0264641 8.95272 0.0647255C8.86082 0.102987 8.7774 0.159056 8.70726 0.229703L4.99964 3.92954L1.29275 0.221847C1.15073 0.0798007 0.958114 -1.4967e-09 0.757273 0C0.556432 1.4967e-09 0.363816 0.0798007 0.2218 0.221847C0.079784 0.363894 1.49638e-09 0.55655 0 0.757435C-1.49638e-09 0.958319 0.079784 1.15098 0.2218 1.29302L3.9287 5.00071L0.223942 8.70698C0.0819257 8.84902 0.00214208 9.04168 0.00214208 9.24257C0.00214208 9.44345 0.0819257 9.63611 0.223942 9.77815C0.365958 9.9202 0.558573 10 0.759414 10C0.960256 10 1.15287 9.9202 1.29489 9.77815L4.99964 6.06475L8.70726 9.77815C8.84927 9.9202 9.04189 10 9.24273 10C9.44357 10 9.63618 9.9202 9.7782 9.77815C9.92022 9.63611 10 9.44345 10 9.24257C10 9.04168 9.92022 8.84902 9.7782 8.70698L6.06559 4.99857L9.7782 1.29088C9.91662 1.14896 9.9941 0.958554 9.9941 0.760291C9.9941 0.562029 9.91662 0.371619 9.7782 0.229703Z" fill="white"/>
</svg>
